<mxfile host="app.diagrams.net" modified="2021-04-19T15:17:14.523Z" agent="5.0 (X11; Linux x86_64) AppleWebKit/537.36 (KHTML, like Gecko) Chrome/88.0.4324.150 Safari/537.36" etag="CHiobNSSGWxZjccc3krB" version="14.6.1" type="github">
  <diagram id="0wANd1QqWu9-6C31_zJr" name="Page-1">
    <mxGraphModel dx="2249" dy="833" grid="1" gridSize="10" guides="1" tooltips="1" connect="1" arrows="1" fold="1" page="1" pageScale="1" pageWidth="827" pageHeight="1169" math="0" shadow="0">
      <root>
        <mxCell id="0" />
        <mxCell id="1" parent="0" />
        <mxCell id="62n9yc7HZovCQX4y2veT-6" style="edgeStyle=orthogonalEdgeStyle;rounded=0;orthogonalLoop=1;jettySize=auto;html=1;entryX=0;entryY=0.5;entryDx=0;entryDy=0;" edge="1" parent="1" source="62n9yc7HZovCQX4y2veT-3" target="62n9yc7HZovCQX4y2veT-5">
          <mxGeometry relative="1" as="geometry" />
        </mxCell>
        <object label="AIRBUS PROG&lt;br&gt;&lt;div class=&quot;OutlineElement Ltr SCXP198929355 BCX0&quot; style=&quot;margin: 0px ; padding: 0px ; overflow: visible ; cursor: text ; clear: both ; position: relative ; direction: ltr ; font-family: &amp;#34;segoe ui&amp;#34; , &amp;#34;segoe ui web&amp;#34; , &amp;#34;arial&amp;#34; , &amp;#34;verdana&amp;#34; , sans-serif ; background-color: rgb(237 , 235 , 233)&quot;&gt;&lt;p class=&quot;Paragraph SCXP198929355 BCX0&quot; lang=&quot;EN-US&quot; style=&quot;margin: 0px ; padding: 0px ; overflow-wrap: break-word ; vertical-align: baseline ; background-color: transparent ; text-align: center&quot;&gt;&lt;span class=&quot;TextRun SCXP198929355 BCX0&quot; lang=&quot;FR-FR&quot; style=&quot;margin: 0px ; padding: 0px 0px 0.372973px ; font-size: 13.3333px ; font-family: &amp;#34;arial&amp;#34; , &amp;#34;arial_msfontservice&amp;#34; , &amp;#34;arial_msfontservice&amp;#34; , sans-serif ; line-height: 16px ; vertical-align: 0.372973px&quot;&gt;&lt;span class=&quot;NormalTextRun SCXP198929355 BCX0&quot; style=&quot;margin: 0px ; padding: 0px ; vertical-align: -0.372973px ; line-height: 0px ; position: relative&quot;&gt;TLARS&lt;/span&gt;&lt;/span&gt;&lt;span class=&quot;EOP SCXP198929355 BCX0&quot; style=&quot;margin: 0px ; padding: 0px ; font-size: 13.3333px ; line-height: 0px ; font-family: &amp;#34;arial&amp;#34; , &amp;#34;arial_msfontservice&amp;#34; , &amp;#34;arial_msfontservice&amp;#34; , sans-serif&quot;&gt;​&lt;/span&gt;&lt;/p&gt;&lt;/div&gt;&lt;span class=&quot;TextRun SCXP198929355 BCX0&quot; lang=&quot;FR-FR&quot; style=&quot;background-color: transparent ; margin: 0px ; padding: 0px 0px 0.372973px ; font-size: 13.3333px ; font-family: &amp;#34;arial&amp;#34; , &amp;#34;arial_msfontservice&amp;#34; , &amp;#34;arial_msfontservice&amp;#34; , sans-serif ; line-height: 16px ; vertical-align: 0.372973px&quot;&gt;&lt;span class=&quot;NormalTextRun SCXP198929355 BCX0&quot; style=&quot;margin: 0px ; padding: 0px ; vertical-align: -0.372973px ; line-height: 0px ; position: relative&quot;&gt;Top-&lt;/span&gt;&lt;/span&gt;&lt;span class=&quot;TextRun SCXP198929355 BCX0&quot; lang=&quot;FR-FR&quot; style=&quot;background-color: transparent ; margin: 0px ; padding: 0px 0px 0.372973px ; font-size: 13.3333px ; font-family: &amp;#34;arial&amp;#34; , &amp;#34;arial_msfontservice&amp;#34; , &amp;#34;arial_msfontservice&amp;#34; , sans-serif ; line-height: 16px ; vertical-align: 0.372973px&quot;&gt;&lt;span class=&quot;SpellingError SCXP198929355 BCX0&quot; style=&quot;margin: 0px ; padding: 0px ; background-repeat: repeat-x ; background-position: left bottom ; background-image: url(&amp;#34;data:image/gif;base64,R0lGODlhBQAEAJECAP////8AAAAAAAAAACH5BAEAAAIALAAAAAAFAAQAAAIIlGAXCCHrTCgAOw==&amp;#34;) ; border-bottom: 1px solid transparent ; vertical-align: -0.372973px ; line-height: 0px ; position: relative&quot;&gt;Level&lt;/span&gt;&lt;/span&gt;&lt;span class=&quot;TextRun SCXP198929355 BCX0&quot; lang=&quot;FR-FR&quot; style=&quot;background-color: transparent ; margin: 0px ; padding: 0px 0px 0.372973px ; font-size: 13.3333px ; font-family: &amp;#34;arial&amp;#34; , &amp;#34;arial_msfontservice&amp;#34; , &amp;#34;arial_msfontservice&amp;#34; , sans-serif ; line-height: 16px ; vertical-align: 0.372973px&quot;&gt;&lt;span class=&quot;NormalTextRun SCXP198929355 BCX0&quot; style=&quot;margin: 0px ; padding: 0px ; vertical-align: -0.372973px ; line-height: 0px ; position: relative&quot;&gt;-&lt;/span&gt;&lt;/span&gt;&lt;span class=&quot;TextRun SCXP198929355 BCX0&quot; lang=&quot;FR-FR&quot; style=&quot;background-color: transparent ; margin: 0px ; padding: 0px 0px 0.372973px ; font-size: 13.3333px ; font-family: &amp;#34;arial&amp;#34; , &amp;#34;arial_msfontservice&amp;#34; , &amp;#34;arial_msfontservice&amp;#34; , sans-serif ; line-height: 16px ; vertical-align: 0.372973px&quot;&gt;&lt;span class=&quot;NormalTextRun SCXP198929355 BCX0&quot; style=&quot;margin: 0px ; padding: 0px ; vertical-align: -0.372973px ; line-height: 0px ; position: relative&quot;&gt;Aircraft-&lt;/span&gt;&lt;/span&gt;&lt;span class=&quot;TextRun SCXP198929355 BCX0&quot; lang=&quot;FR-FR&quot; style=&quot;background-color: transparent ; margin: 0px ; padding: 0px 0px 0.372973px ; font-size: 13.3333px ; font-family: &amp;#34;arial&amp;#34; , &amp;#34;arial_msfontservice&amp;#34; , &amp;#34;arial_msfontservice&amp;#34; , sans-serif ; line-height: 16px ; vertical-align: 0.372973px&quot;&gt;&lt;span class=&quot;SpellingError SCXP198929355 BCX0&quot; style=&quot;margin: 0px ; padding: 0px ; background-repeat: repeat-x ; background-position: left bottom ; background-image: url(&amp;#34;data:image/gif;base64,R0lGODlhBQAEAJECAP////8AAAAAAAAAACH5BAEAAAIALAAAAAAFAAQAAAIIlGAXCCHrTCgAOw==&amp;#34;) ; border-bottom: 1px solid transparent ; vertical-align: -0.372973px ; line-height: 0px ; position: relative&quot;&gt;Requirements&lt;/span&gt;&lt;/span&gt;&lt;span class=&quot;EOP SCXP198929355 BCX0&quot; style=&quot;background-color: transparent ; margin: 0px ; padding: 0px ; font-size: 13.3333px ; line-height: 0px ; font-family: &amp;#34;arial&amp;#34; , &amp;#34;arial_msfontservice&amp;#34; , &amp;#34;arial_msfontservice&amp;#34; , sans-serif&quot;&gt;​&lt;/span&gt;&amp;nbsp;" idbpm="nouveau" id="62n9yc7HZovCQX4y2veT-3">
          <mxCell style="html=1;whiteSpace=wrap;rounded=1;dropTarget=0;strokeWidth=3;gradientColor=#ffd966;fillColor=#fff2cc;strokeColor=#d6b656;" vertex="1" parent="1">
            <mxGeometry x="-760" y="400" width="120" height="80" as="geometry" />
          </mxCell>
        </object>
        <mxCell id="62n9yc7HZovCQX4y2veT-8" value="" style="edgeStyle=orthogonalEdgeStyle;rounded=0;orthogonalLoop=1;jettySize=auto;html=1;" edge="1" parent="1" source="62n9yc7HZovCQX4y2veT-5" target="62n9yc7HZovCQX4y2veT-7">
          <mxGeometry relative="1" as="geometry" />
        </mxCell>
        <object label="EIX&lt;br&gt;&lt;span class=&quot;TextRun SCXP187711274 BCX0&quot; lang=&quot;FR-FR&quot; style=&quot;margin: 0px ; padding: 0px 0px 0.372973px ; background-color: rgb(237 , 235 , 233) ; font-size: 13.3333px ; font-family: &amp;#34;arial&amp;#34; , &amp;#34;arial_msfontservice&amp;#34; , &amp;#34;arial_msfontservice&amp;#34; , sans-serif ; line-height: 16px ; vertical-align: 0.372973px&quot;&gt;&lt;span class=&quot;NormalTextRun SCXP187711274 BCX0&quot; style=&quot;margin: 0px ; padding: 0px ; vertical-align: -0.372973px ; line-height: 0px ; position: relative&quot;&gt;Preliminary&amp;nbsp;&lt;/span&gt;&lt;/span&gt;&lt;span class=&quot;TextRun SCXP187711274 BCX0&quot; lang=&quot;FR-FR&quot; style=&quot;margin: 0px ; padding: 0px 0px 0.372973px ; background-color: rgb(237 , 235 , 233) ; font-size: 13.3333px ; font-family: &amp;#34;arial&amp;#34; , &amp;#34;arial_msfontservice&amp;#34; , &amp;#34;arial_msfontservice&amp;#34; , sans-serif ; line-height: 16px ; vertical-align: 0.372973px&quot;&gt;&lt;span class=&quot;NormalTextRun SCXP187711274 BCX0&quot; style=&quot;margin: 0px ; padding: 0px ; vertical-align: -0.372973px ; line-height: 0px ; position: relative&quot;&gt;design &amp;amp;&amp;nbsp;&lt;/span&gt;&lt;/span&gt;&lt;span class=&quot;TextRun SCXP187711274 BCX0&quot; lang=&quot;FR-FR&quot; style=&quot;margin: 0px ; padding: 0px 0px 0.372973px ; background-color: rgb(237 , 235 , 233) ; font-size: 13.3333px ; font-family: &amp;#34;arial&amp;#34; , &amp;#34;arial_msfontservice&amp;#34; , &amp;#34;arial_msfontservice&amp;#34; , sans-serif ; line-height: 16px ; vertical-align: 0.372973px&quot;&gt;&lt;span class=&quot;NormalTextRun SCXP187711274 BCX0&quot; style=&quot;margin: 0px ; padding: 0px ; vertical-align: -0.372973px ; line-height: 0px ; position: relative&quot;&gt;concepts&lt;/span&gt;&lt;/span&gt;" idbpm="nouveau" id="62n9yc7HZovCQX4y2veT-5">
          <mxCell style="html=1;whiteSpace=wrap;rounded=1;dropTarget=0;strokeWidth=3;gradientColor=#ffd966;fillColor=#fff2cc;strokeColor=#d6b656;" vertex="1" parent="1">
            <mxGeometry x="-550" y="400" width="120" height="80" as="geometry" />
          </mxCell>
        </object>
        <mxCell id="62n9yc7HZovCQX4y2veT-13" value="" style="edgeStyle=orthogonalEdgeStyle;rounded=0;orthogonalLoop=1;jettySize=auto;html=1;" edge="1" parent="1" source="62n9yc7HZovCQX4y2veT-7" target="62n9yc7HZovCQX4y2veT-12">
          <mxGeometry relative="1" as="geometry">
            <Array as="points">
              <mxPoint x="-300" y="270" />
            </Array>
          </mxGeometry>
        </mxCell>
        <mxCell id="62n9yc7HZovCQX4y2veT-15" style="edgeStyle=orthogonalEdgeStyle;rounded=0;orthogonalLoop=1;jettySize=auto;html=1;" edge="1" parent="1" source="62n9yc7HZovCQX4y2veT-7" target="62n9yc7HZovCQX4y2veT-14">
          <mxGeometry relative="1" as="geometry" />
        </mxCell>
        <object label="&lt;span class=&quot;TextRun SCXP247377463 BCX0&quot; lang=&quot;FR-FR&quot; style=&quot;margin: 0px ; padding: 0px 0px 0.372973px ; background-color: rgb(237 , 235 , 233) ; font-size: 13.3333px ; font-family: &amp;#34;arial&amp;#34; , &amp;#34;arial_msfontservice&amp;#34; , &amp;#34;arial_msfontservice&amp;#34; , sans-serif ; line-height: 16px ; vertical-align: 0.372973px&quot;&gt;&lt;span class=&quot;SpellingError SCXP247377463 BCX0&quot; style=&quot;margin: 0px ; padding: 0px ; background-repeat: repeat-x ; background-position: left bottom ; background-image: url(&amp;#34;data:image/gif;base64,R0lGODlhBQAEAJECAP////8AAAAAAAAAACH5BAEAAAIALAAAAAAFAAQAAAIIlGAXCCHrTCgAOw==&amp;#34;) ; border-bottom: 1px solid transparent ; vertical-align: -0.372973px ; line-height: 0px ; position: relative&quot;&gt;&lt;span class=&quot;TextRun SCXP74854234 BCX0&quot; lang=&quot;FR-FR&quot; style=&quot;margin: 0px ; padding: 0px 0px 0.372973px ; background-color: rgb(255 , 255 , 255) ; font-size: 13.3333px ; font-family: &amp;#34;arial&amp;#34; , &amp;#34;arial_msfontservice&amp;#34; , &amp;#34;arial_msfontservice&amp;#34; , sans-serif ; line-height: 16px ; vertical-align: 0.372973px&quot;&gt;&lt;span class=&quot;NormalTextRun SCXP74854234 BCX0&quot; style=&quot;margin: 0px ; padding: 0px ; vertical-align: -0.372973px ; line-height: 0px ; position: relative&quot;&gt;IGYA / IGAA&lt;/span&gt;&lt;/span&gt;&lt;span class=&quot;EOP SCXP74854234 BCX0&quot; style=&quot;margin: 0px ; padding: 0px ; color: rgb(255 , 255 , 255) ; font-weight: 700 ; background-color: rgb(255 , 255 , 255) ; font-size: 13.3333px ; line-height: 0px ; font-family: &amp;#34;arial&amp;#34; , &amp;#34;arial_msfontservice&amp;#34; , &amp;#34;arial_msfontservice&amp;#34; , sans-serif&quot;&gt;​&lt;/span&gt;&lt;br&gt;Specs&lt;/span&gt;&lt;/span&gt;&lt;span class=&quot;TextRun SCXP247377463 BCX0&quot; lang=&quot;FR-FR&quot; style=&quot;margin: 0px ; padding: 0px 0px 0.372973px ; background-color: rgb(237 , 235 , 233) ; font-size: 13.3333px ; font-family: &amp;#34;arial&amp;#34; , &amp;#34;arial_msfontservice&amp;#34; , &amp;#34;arial_msfontservice&amp;#34; , sans-serif ; line-height: 16px ; vertical-align: 0.372973px&quot;&gt;&lt;span class=&quot;NormalTextRun SCXP247377463 BCX0&quot; style=&quot;margin: 0px ; padding: 0px ; vertical-align: -0.372973px ; line-height: 0px ; position: relative&quot;&gt;&amp;nbsp;&lt;br&gt;of&amp;nbsp;&lt;/span&gt;&lt;/span&gt;&lt;span class=&quot;TextRun SCXP247377463 BCX0&quot; lang=&quot;FR-FR&quot; style=&quot;margin: 0px ; padding: 0px 0px 0.372973px ; background-color: rgb(237 , 235 , 233) ; font-size: 13.3333px ; font-family: &amp;#34;arial&amp;#34; , &amp;#34;arial_msfontservice&amp;#34; , &amp;#34;arial_msfontservice&amp;#34; , sans-serif ; line-height: 16px ; vertical-align: 0.372973px&quot;&gt;&lt;span class=&quot;SpellingError SCXP247377463 BCX0&quot; style=&quot;margin: 0px ; padding: 0px ; background-repeat: repeat-x ; background-position: left bottom ; background-image: url(&amp;#34;data:image/gif;base64,R0lGODlhBQAEAJECAP////8AAAAAAAAAACH5BAEAAAIALAAAAAAFAAQAAAIIlGAXCCHrTCgAOw==&amp;#34;) ; border-bottom: 1px solid transparent ; vertical-align: -0.372973px ; line-height: 0px ; position: relative&quot;&gt;aero&lt;/span&gt;&lt;/span&gt;&lt;span class=&quot;TextRun SCXP247377463 BCX0&quot; lang=&quot;FR-FR&quot; style=&quot;margin: 0px ; padding: 0px 0px 0.372973px ; background-color: rgb(237 , 235 , 233) ; font-size: 13.3333px ; font-family: &amp;#34;arial&amp;#34; , &amp;#34;arial_msfontservice&amp;#34; , &amp;#34;arial_msfontservice&amp;#34; , sans-serif ; line-height: 16px ; vertical-align: 0.372973px&quot;&gt;&lt;span class=&quot;NormalTextRun SCXP247377463 BCX0&quot; style=&quot;margin: 0px ; padding: 0px ; vertical-align: -0.372973px ; line-height: 0px ; position: relative&quot;&gt;&amp;nbsp;&lt;/span&gt;&lt;/span&gt;&lt;span class=&quot;TextRun SCXP247377463 BCX0&quot; lang=&quot;FR-FR&quot; style=&quot;margin: 0px ; padding: 0px 0px 0.372973px ; background-color: rgb(237 , 235 , 233) ; font-size: 13.3333px ; font-family: &amp;#34;arial&amp;#34; , &amp;#34;arial_msfontservice&amp;#34; , &amp;#34;arial_msfontservice&amp;#34; , sans-serif ; line-height: 16px ; vertical-align: 0.372973px&quot;&gt;&lt;span class=&quot;SpellingError SCXP247377463 BCX0&quot; style=&quot;margin: 0px ; padding: 0px ; background-repeat: repeat-x ; background-position: left bottom ; background-image: url(&amp;#34;data:image/gif;base64,R0lGODlhBQAEAJECAP////8AAAAAAAAAACH5BAEAAAIALAAAAAAFAAQAAAIIlGAXCCHrTCgAOw==&amp;#34;) ; border-bottom: 1px solid transparent ; vertical-align: -0.372973px ; line-height: 0px ; position: relative&quot;&gt;effects&lt;br&gt;&lt;/span&gt;&lt;/span&gt;&lt;span class=&quot;TextRun SCXP247377463 BCX0&quot; lang=&quot;FR-FR&quot; style=&quot;margin: 0px ; padding: 0px 0px 0.372973px ; background-color: rgb(237 , 235 , 233) ; font-size: 13.3333px ; font-family: &amp;#34;arial&amp;#34; , &amp;#34;arial_msfontservice&amp;#34; , &amp;#34;arial_msfontservice&amp;#34; , sans-serif ; line-height: 16px ; vertical-align: 0.372973px&quot;&gt;&lt;span class=&quot;NormalTextRun SCXP247377463 BCX0&quot; style=&quot;margin: 0px ; padding: 0px ; vertical-align: -0.372973px ; line-height: 0px ; position: relative&quot;&gt;&amp;nbsp;to&amp;nbsp;&lt;/span&gt;&lt;/span&gt;&lt;span class=&quot;TextRun SCXP247377463 BCX0&quot; lang=&quot;FR-FR&quot; style=&quot;margin: 0px ; padding: 0px 0px 0.372973px ; background-color: rgb(237 , 235 , 233) ; font-size: 13.3333px ; font-family: &amp;#34;arial&amp;#34; , &amp;#34;arial_msfontservice&amp;#34; , &amp;#34;arial_msfontservice&amp;#34; , sans-serif ; line-height: 16px ; vertical-align: 0.372973px&quot;&gt;&lt;span class=&quot;SpellingError SCXP247377463 BCX0&quot; style=&quot;margin: 0px ; padding: 0px ; background-repeat: repeat-x ; background-position: left bottom ; background-image: url(&amp;#34;data:image/gif;base64,R0lGODlhBQAEAJECAP////8AAAAAAAAAACH5BAEAAAIALAAAAAAFAAQAAAIIlGAXCCHrTCgAOw==&amp;#34;) ; border-bottom: 1px solid transparent ; vertical-align: -0.372973px ; line-height: 0px ; position: relative&quot;&gt;be&lt;/span&gt;&lt;/span&gt;&lt;span class=&quot;TextRun SCXP247377463 BCX0&quot; lang=&quot;FR-FR&quot; style=&quot;margin: 0px ; padding: 0px 0px 0.372973px ; background-color: rgb(237 , 235 , 233) ; font-size: 13.3333px ; font-family: &amp;#34;arial&amp;#34; , &amp;#34;arial_msfontservice&amp;#34; , &amp;#34;arial_msfontservice&amp;#34; , sans-serif ; line-height: 16px ; vertical-align: 0.372973px&quot;&gt;&lt;span class=&quot;NormalTextRun SCXP247377463 BCX0&quot; style=&quot;margin: 0px ; padding: 0px ; vertical-align: -0.372973px ; line-height: 0px ; position: relative&quot;&gt;&amp;nbsp;&lt;/span&gt;&lt;/span&gt;&lt;span class=&quot;TextRun SCXP247377463 BCX0&quot; lang=&quot;FR-FR&quot; style=&quot;margin: 0px ; padding: 0px 0px 0.372973px ; background-color: rgb(237 , 235 , 233) ; font-size: 13.3333px ; font-family: &amp;#34;arial&amp;#34; , &amp;#34;arial_msfontservice&amp;#34; , &amp;#34;arial_msfontservice&amp;#34; , sans-serif ; line-height: 16px ; vertical-align: 0.372973px&quot;&gt;&lt;span class=&quot;SpellingError SCXP247377463 BCX0&quot; style=&quot;margin: 0px ; padding: 0px ; background-repeat: repeat-x ; background-position: left bottom ; background-image: url(&amp;#34;data:image/gif;base64,R0lGODlhBQAEAJECAP////8AAAAAAAAAACH5BAEAAAIALAAAAAAFAAQAAAIIlGAXCCHrTCgAOw==&amp;#34;) ; border-bottom: 1px solid transparent ; vertical-align: -0.372973px ; line-height: 0px ; position: relative&quot;&gt;considered&lt;/span&gt;&lt;/span&gt;&lt;span class=&quot;EOP SCXP247377463 BCX0&quot; style=&quot;margin: 0px ; padding: 0px ; background-color: rgb(237 , 235 , 233) ; font-size: 13.3333px ; line-height: 0px ; font-family: &amp;#34;arial&amp;#34; , &amp;#34;arial_msfontservice&amp;#34; , &amp;#34;arial_msfontservice&amp;#34; , sans-serif&quot;&gt;​&lt;br&gt;&lt;br&gt;&lt;/span&gt;" idbpm="nouveau" id="62n9yc7HZovCQX4y2veT-7">
          <mxCell style="html=1;whiteSpace=wrap;rounded=1;dropTarget=0;strokeWidth=3;gradientColor=#ffd966;fillColor=#fff2cc;strokeColor=#d6b656;" vertex="1" parent="1">
            <mxGeometry x="-350" y="400" width="120" height="80" as="geometry" />
          </mxCell>
        </object>
        <mxCell id="62n9yc7HZovCQX4y2veT-16" style="edgeStyle=orthogonalEdgeStyle;rounded=0;orthogonalLoop=1;jettySize=auto;html=1;entryX=0.5;entryY=0;entryDx=0;entryDy=0;" edge="1" parent="1" source="62n9yc7HZovCQX4y2veT-12" target="62n9yc7HZovCQX4y2veT-14">
          <mxGeometry relative="1" as="geometry" />
        </mxCell>
        <object label="&lt;span class=&quot;TextRun SCXP247377463 BCX0&quot; lang=&quot;FR-FR&quot; style=&quot;margin: 0px ; padding: 0px 0px 0.372973px ; background-color: rgb(237 , 235 , 233) ; font-size: 13.3333px ; font-family: &amp;#34;arial&amp;#34; , &amp;#34;arial_msfontservice&amp;#34; , &amp;#34;arial_msfontservice&amp;#34; , sans-serif ; line-height: 16px ; vertical-align: 0.372973px&quot;&gt;&lt;span class=&quot;SpellingError SCXP247377463 BCX0&quot; style=&quot;margin: 0px ; padding: 0px ; background-repeat: repeat-x ; background-position: left bottom ; background-image: url(&amp;#34;data:image/gif;base64,R0lGODlhBQAEAJECAP////8AAAAAAAAAACH5BAEAAAIALAAAAAAFAAQAAAIIlGAXCCHrTCgAOw==&amp;#34;) ; border-bottom: 1px solid transparent ; vertical-align: -0.372973px ; line-height: 0px ; position: relative&quot;&gt;&lt;span class=&quot;TextRun SCXP74854234 BCX0&quot; lang=&quot;FR-FR&quot; style=&quot;margin: 0px ; padding: 0px 0px 0.372973px ; background-color: rgb(255 , 255 , 255) ; font-size: 13.3333px ; font-family: &amp;#34;arial&amp;#34; , &amp;#34;arial_msfontservice&amp;#34; , &amp;#34;arial_msfontservice&amp;#34; , sans-serif ; line-height: 16px ; vertical-align: 0.372973px&quot;&gt;&lt;span class=&quot;NormalTextRun SCXP74854234 BCX0&quot; style=&quot;margin: 0px ; padding: 0px ; vertical-align: -0.372973px ; line-height: 0px ; position: relative&quot;&gt;IGYA / IGAA&lt;/span&gt;&lt;/span&gt;&lt;span class=&quot;EOP SCXP74854234 BCX0&quot; style=&quot;margin: 0px ; padding: 0px ; color: rgb(255 , 255 , 255) ; font-weight: 700 ; background-color: rgb(255 , 255 , 255) ; font-size: 13.3333px ; line-height: 0px ; font-family: &amp;#34;arial&amp;#34; , &amp;#34;arial_msfontservice&amp;#34; , &amp;#34;arial_msfontservice&amp;#34; , sans-serif&quot;&gt;​&lt;/span&gt;&lt;br&gt;&lt;/span&gt;&lt;/span&gt;&lt;span class=&quot;EOP SCXP247377463 BCX0&quot; style=&quot;margin: 0px ; padding: 0px ; background-color: rgb(237 , 235 , 233) ; font-size: 13.3333px ; line-height: 0px ; font-family: &amp;#34;arial&amp;#34; , &amp;#34;arial_msfontservice&amp;#34; , &amp;#34;arial_msfontservice&amp;#34; , sans-serif&quot;&gt;&lt;span class=&quot;TextRun SCXP226568778 BCX0&quot; lang=&quot;FR-FR&quot; style=&quot;margin: 0px ; padding: 0px 0px 0.372973px ; font-size: 13.3333px ; font-family: &amp;#34;arial&amp;#34; , &amp;#34;arial_msfontservice&amp;#34; , &amp;#34;arial_msfontservice&amp;#34; , sans-serif ; line-height: 16px ; vertical-align: 0.372973px&quot;&gt;&lt;span class=&quot;NormalTextRun SCXP226568778 BCX0&quot; style=&quot;margin: 0px ; padding: 0px ; vertical-align: -0.372973px ; line-height: 0px ; position: relative&quot;&gt;Aero model&amp;nbsp;&lt;/span&gt;&lt;/span&gt;&lt;span class=&quot;TextRun SCXP226568778 BCX0&quot; lang=&quot;FR-FR&quot; style=&quot;margin: 0px ; padding: 0px 0px 0.372973px ; font-size: 13.3333px ; font-family: &amp;#34;arial&amp;#34; , &amp;#34;arial_msfontservice&amp;#34; , &amp;#34;arial_msfontservice&amp;#34; , sans-serif ; line-height: 16px ; vertical-align: 0.372973px&quot;&gt;&lt;span class=&quot;SpellingError SCXP226568778 BCX0&quot; style=&quot;margin: 0px ; padding: 0px ; background-repeat: repeat-x ; background-position: left bottom ; background-image: url(&amp;#34;data:image/gif;base64,R0lGODlhBQAEAJECAP////8AAAAAAAAAACH5BAEAAAIALAAAAAAFAAQAAAIIlGAXCCHrTCgAOw==&amp;#34;) ; border-bottom: 1px solid transparent ; vertical-align: -0.372973px ; line-height: 0px ; position: relative&quot;&gt;specs&lt;/span&gt;&lt;/span&gt;&lt;span class=&quot;TextRun SCXP226568778 BCX0&quot; lang=&quot;FR-FR&quot; style=&quot;margin: 0px ; padding: 0px 0px 0.372973px ; font-size: 13.3333px ; font-family: &amp;#34;arial&amp;#34; , &amp;#34;arial_msfontservice&amp;#34; , &amp;#34;arial_msfontservice&amp;#34; , sans-serif ; line-height: 16px ; vertical-align: 0.372973px&quot;&gt;&lt;span class=&quot;NormalTextRun SCXP226568778 BCX0&quot; style=&quot;margin: 0px ; padding: 0px ; vertical-align: -0.372973px ; line-height: 0px ; position: relative&quot;&gt;&amp;nbsp;&lt;br&gt;&amp;amp;&amp;nbsp;&lt;/span&gt;&lt;/span&gt;&lt;span class=&quot;TextRun SCXP226568778 BCX0&quot; lang=&quot;FR-FR&quot; style=&quot;margin: 0px ; padding: 0px 0px 0.372973px ; font-size: 13.3333px ; font-family: &amp;#34;arial&amp;#34; , &amp;#34;arial_msfontservice&amp;#34; , &amp;#34;arial_msfontservice&amp;#34; , sans-serif ; line-height: 16px ; vertical-align: 0.372973px&quot;&gt;&lt;span class=&quot;SpellingError SCXP226568778 BCX0&quot; style=&quot;margin: 0px ; padding: 0px ; background-repeat: repeat-x ; background-position: left bottom ; background-image: url(&amp;#34;data:image/gif;base64,R0lGODlhBQAEAJECAP////8AAAAAAAAAACH5BAEAAAIALAAAAAAFAAQAAAIIlGAXCCHrTCgAOw==&amp;#34;) ; border-bottom: 1px solid transparent ; vertical-align: -0.372973px ; line-height: 0px ; position: relative&quot;&gt;equations&lt;/span&gt;&lt;/span&gt;&lt;br&gt;&lt;/span&gt;" idbpm="nouveau" id="62n9yc7HZovCQX4y2veT-12">
          <mxCell style="html=1;whiteSpace=wrap;rounded=1;dropTarget=0;strokeWidth=3;gradientColor=#ffd966;fillColor=#fff2cc;strokeColor=#d6b656;" vertex="1" parent="1">
            <mxGeometry x="-350" y="220" width="120" height="80" as="geometry" />
          </mxCell>
        </object>
        <mxCell id="62n9yc7HZovCQX4y2veT-18" value="" style="edgeStyle=orthogonalEdgeStyle;rounded=0;orthogonalLoop=1;jettySize=auto;html=1;" edge="1" parent="1" source="62n9yc7HZovCQX4y2veT-14" target="62n9yc7HZovCQX4y2veT-17">
          <mxGeometry relative="1" as="geometry" />
        </mxCell>
        <mxCell id="62n9yc7HZovCQX4y2veT-14" value="" style="shape=mxgraph.bpmn.shape;html=1;verticalLabelPosition=bottom;labelBackgroundColor=#ffffff;verticalAlign=top;align=center;perimeter=rhombusPerimeter;background=gateway;outlineConnect=0;outline=end;symbol=general;startSize=20;fillColor=#d5e8d4;strokeColor=#82b366;" vertex="1" parent="1">
          <mxGeometry x="-140" y="415" width="50" height="50" as="geometry" />
        </mxCell>
        <mxCell id="62n9yc7HZovCQX4y2veT-22" value="" style="edgeStyle=orthogonalEdgeStyle;rounded=0;orthogonalLoop=1;jettySize=auto;html=1;" edge="1" parent="1" source="62n9yc7HZovCQX4y2veT-17" target="62n9yc7HZovCQX4y2veT-19">
          <mxGeometry relative="1" as="geometry" />
        </mxCell>
        <object label="&lt;span class=&quot;EOP SCXP247377463 BCX0&quot; style=&quot;margin: 0px ; padding: 0px ; font-size: 13.3333px ; line-height: 0px ; font-family: &amp;#34;arial&amp;#34; , &amp;#34;arial_msfontservice&amp;#34; , &amp;#34;arial_msfontservice&amp;#34; , sans-serif&quot;&gt;&lt;span class=&quot;TextRun SCXP14588892 BCX0&quot; lang=&quot;FR-FR&quot; style=&quot;margin: 0px ; padding: 0px 0px 0.372973px ; font-size: 13.3333px ; font-family: &amp;#34;arial&amp;#34; , &amp;#34;arial_msfontservice&amp;#34; , &amp;#34;arial_msfontservice&amp;#34; , sans-serif ; line-height: 16px ; vertical-align: 0.372973px&quot;&gt;&lt;span class=&quot;NormalTextRun SCXP14588892 BCX0&quot; style=&quot;margin: 0px ; padding: 0px ; vertical-align: -0.372973px ; line-height: 0px ; position: relative&quot;&gt;&lt;span class=&quot;TextRun SCXP51421336 BCX0&quot; lang=&quot;FR-FR&quot; style=&quot;margin: 0px ; padding: 0px 0px 0.372973px ; font-size: 13.3333px ; font-family: &amp;#34;arial&amp;#34; , &amp;#34;arial_msfontservice&amp;#34; , &amp;#34;arial_msfontservice&amp;#34; , sans-serif ; line-height: 16px ; vertical-align: 0.372973px&quot;&gt;&lt;span class=&quot;NormalTextRun SCXP51421336 BCX0&quot; style=&quot;margin: 0px ; padding: 0px ; vertical-align: -0.372973px ; line-height: 0px ; position: relative&quot;&gt;&lt;span style=&quot;background-color: rgb(255 , 255 , 255)&quot;&gt;IGYA&lt;/span&gt;&lt;font color=&quot;#ffffff&quot;&gt;&lt;span style=&quot;background-color: rgb(255 , 255 , 255)&quot;&gt;&lt;b&gt;&lt;br&gt;&lt;/b&gt;&lt;/span&gt;&lt;/font&gt;&lt;/span&gt;&lt;/span&gt;&lt;br&gt;&lt;/span&gt;&lt;/span&gt;&lt;span class=&quot;TextRun  BCX0 SCXP63931844&quot; lang=&quot;FR-FR&quot; style=&quot;margin: 0px ; padding: 0px 0px 0.372973px ; letter-spacing: 0px ; background-color: rgb(237 , 235 , 233) ; font-size: 13.3333px ; font-family: &amp;#34;arial&amp;#34; , &amp;#34;arial_msfontservice&amp;#34; , &amp;#34;arial_msfontservice&amp;#34; , sans-serif ; line-height: 16px ; vertical-align: 0.372973px&quot;&gt;&lt;span class=&quot;NormalTextRun  BCX0 SCXP63931844&quot; style=&quot;margin: 0px ; padding: 0px ; vertical-align: -0.372973px ; line-height: 0px ; position: relative&quot;&gt;Preliminary&amp;nbsp;&lt;/span&gt;&lt;/span&gt;&lt;span class=&quot;TextRun  BCX0 SCXP63931844&quot; lang=&quot;FR-FR&quot; style=&quot;margin: 0px ; padding: 0px 0px 0.372973px ; letter-spacing: 0px ; background-color: rgb(237 , 235 , 233) ; font-size: 13.3333px ; font-family: &amp;#34;arial&amp;#34; , &amp;#34;arial_msfontservice&amp;#34; , &amp;#34;arial_msfontservice&amp;#34; , sans-serif ; line-height: 16px ; vertical-align: 0.372973px&quot;&gt;&lt;span class=&quot;NormalTextRun  BCX0 SCXP63931844&quot; style=&quot;margin: 0px ; padding: 0px ; vertical-align: -0.372973px ; line-height: 0px ; position: relative&quot;&gt;model&lt;/span&gt;&lt;/span&gt;&lt;br&gt;&lt;/span&gt;" idbpm="nouveau" id="62n9yc7HZovCQX4y2veT-17">
          <mxCell style="html=1;whiteSpace=wrap;rounded=1;dropTarget=0;strokeWidth=3;gradientColor=#ffd966;fillColor=#fff2cc;strokeColor=#d6b656;" vertex="1" parent="1">
            <mxGeometry y="400" width="120" height="80" as="geometry" />
          </mxCell>
        </object>
        <mxCell id="62n9yc7HZovCQX4y2veT-23" value="" style="edgeStyle=orthogonalEdgeStyle;rounded=0;orthogonalLoop=1;jettySize=auto;html=1;" edge="1" parent="1" source="62n9yc7HZovCQX4y2veT-19" target="62n9yc7HZovCQX4y2veT-21">
          <mxGeometry relative="1" as="geometry" />
        </mxCell>
        <object label="&lt;span class=&quot;EOP SCXP247377463 BCX0&quot; style=&quot;margin: 0px ; padding: 0px ; font-size: 13.3333px ; line-height: 0px ; font-family: &amp;#34;arial&amp;#34; , &amp;#34;arial_msfontservice&amp;#34; , &amp;#34;arial_msfontservice&amp;#34; , sans-serif&quot;&gt;&lt;span class=&quot;TextRun SCXP14588892 BCX0&quot; lang=&quot;FR-FR&quot; style=&quot;margin: 0px ; padding: 0px 0px 0.372973px ; font-size: 13.3333px ; font-family: &amp;#34;arial&amp;#34; , &amp;#34;arial_msfontservice&amp;#34; , &amp;#34;arial_msfontservice&amp;#34; , sans-serif ; line-height: 16px ; vertical-align: 0.372973px&quot;&gt;&lt;span class=&quot;NormalTextRun SCXP14588892 BCX0&quot; style=&quot;margin: 0px ; padding: 0px ; vertical-align: -0.372973px ; line-height: 0px ; position: relative&quot;&gt;&lt;span class=&quot;TextRun SCXP51421336 BCX0&quot; lang=&quot;FR-FR&quot; style=&quot;margin: 0px ; padding: 0px 0px 0.372973px ; font-size: 13.3333px ; font-family: &amp;#34;arial&amp;#34; , &amp;#34;arial_msfontservice&amp;#34; , &amp;#34;arial_msfontservice&amp;#34; , sans-serif ; line-height: 16px ; vertical-align: 0.372973px&quot;&gt;&lt;span class=&quot;NormalTextRun SCXP51421336 BCX0&quot; style=&quot;margin: 0px ; padding: 0px ; vertical-align: -0.372973px ; line-height: 0px ; position: relative&quot;&gt;&lt;span style=&quot;background-color: rgb(255 , 255 , 255)&quot;&gt;IGYA&lt;/span&gt;&lt;font color=&quot;#ffffff&quot;&gt;&lt;span style=&quot;background-color: rgb(255 , 255 , 255)&quot;&gt;&lt;b&gt;&lt;br&gt;&lt;/b&gt;&lt;/span&gt;&lt;/font&gt;&lt;/span&gt;&lt;/span&gt;&lt;br&gt;&lt;span style=&quot;background-color: rgb(237 , 235 , 233)&quot;&gt;Coding&lt;/span&gt;&lt;/span&gt;&lt;/span&gt;&lt;span class=&quot;EOP SCXP14588892 BCX0&quot; style=&quot;background-color: rgb(237 , 235 , 233) ; margin: 0px ; padding: 0px ; font-size: 13.3333px ; line-height: 0px ; font-family: &amp;#34;arial&amp;#34; , &amp;#34;arial_msfontservice&amp;#34; , &amp;#34;arial_msfontservice&amp;#34; , sans-serif&quot;&gt;​&lt;/span&gt;&lt;br&gt;&lt;/span&gt;" idbpm="nouveau" id="62n9yc7HZovCQX4y2veT-19">
          <mxCell style="html=1;whiteSpace=wrap;rounded=1;dropTarget=0;strokeWidth=3;gradientColor=#ffd966;fillColor=#fff2cc;strokeColor=#d6b656;" vertex="1" parent="1">
            <mxGeometry x="210" y="400" width="120" height="80" as="geometry" />
          </mxCell>
        </object>
        <object label="&lt;span class=&quot;EOP SCXP247377463 BCX0&quot; style=&quot;margin: 0px ; padding: 0px ; font-size: 13.3333px ; line-height: 0px ; font-family: &amp;#34;arial&amp;#34; , &amp;#34;arial_msfontservice&amp;#34; , &amp;#34;arial_msfontservice&amp;#34; , sans-serif&quot;&gt;&lt;span class=&quot;TextRun SCXP14588892 BCX0&quot; lang=&quot;FR-FR&quot; style=&quot;margin: 0px ; padding: 0px 0px 0.372973px ; font-size: 13.3333px ; font-family: &amp;#34;arial&amp;#34; , &amp;#34;arial_msfontservice&amp;#34; , &amp;#34;arial_msfontservice&amp;#34; , sans-serif ; line-height: 16px ; vertical-align: 0.372973px&quot;&gt;&lt;span class=&quot;NormalTextRun SCXP14588892 BCX0&quot; style=&quot;margin: 0px ; padding: 0px ; vertical-align: -0.372973px ; line-height: 0px ; position: relative&quot;&gt;&lt;span class=&quot;TextRun SCXP51421336 BCX0&quot; lang=&quot;FR-FR&quot; style=&quot;margin: 0px ; padding: 0px 0px 0.372973px ; font-size: 13.3333px ; font-family: &amp;#34;arial&amp;#34; , &amp;#34;arial_msfontservice&amp;#34; , &amp;#34;arial_msfontservice&amp;#34; , sans-serif ; line-height: 16px ; vertical-align: 0.372973px&quot;&gt;&lt;span class=&quot;NormalTextRun SCXP51421336 BCX0&quot; style=&quot;margin: 0px ; padding: 0px ; vertical-align: -0.372973px ; line-height: 0px ; position: relative&quot;&gt;&lt;span style=&quot;background-color: rgb(255 , 255 , 255)&quot;&gt;IGYA&lt;/span&gt;&lt;font color=&quot;#ffffff&quot;&gt;&lt;span style=&quot;background-color: rgb(255 , 255 , 255)&quot;&gt;&lt;b&gt;&lt;br&gt;&lt;/b&gt;&lt;/span&gt;&lt;/font&gt;&lt;/span&gt;&lt;/span&gt;&lt;br&gt;&lt;span style=&quot;background-color: rgb(237 , 235 , 233)&quot;&gt;Coding&lt;/span&gt;&lt;/span&gt;&lt;/span&gt;&lt;span class=&quot;EOP SCXP14588892 BCX0&quot; style=&quot;background-color: rgb(237 , 235 , 233) ; margin: 0px ; padding: 0px ; font-size: 13.3333px ; line-height: 0px ; font-family: &amp;#34;arial&amp;#34; , &amp;#34;arial_msfontservice&amp;#34; , &amp;#34;arial_msfontservice&amp;#34; , sans-serif&quot;&gt;​&lt;/span&gt;&lt;br&gt;&lt;/span&gt;" idbpm="nouveau" id="62n9yc7HZovCQX4y2veT-20">
          <mxCell style="html=1;whiteSpace=wrap;rounded=1;dropTarget=0;strokeWidth=3;gradientColor=#ffd966;fillColor=#fff2cc;strokeColor=#d6b656;" vertex="1" parent="1">
            <mxGeometry x="630" y="400" width="120" height="80" as="geometry" />
          </mxCell>
        </object>
        <mxCell id="62n9yc7HZovCQX4y2veT-24" value="" style="edgeStyle=orthogonalEdgeStyle;rounded=0;orthogonalLoop=1;jettySize=auto;html=1;" edge="1" parent="1" source="62n9yc7HZovCQX4y2veT-21" target="62n9yc7HZovCQX4y2veT-20">
          <mxGeometry relative="1" as="geometry" />
        </mxCell>
        <object label="&lt;span class=&quot;EOP SCXP247377463 BCX0&quot; style=&quot;margin: 0px ; padding: 0px ; font-size: 13.3333px ; line-height: 0px ; font-family: &amp;#34;arial&amp;#34; , &amp;#34;arial_msfontservice&amp;#34; , &amp;#34;arial_msfontservice&amp;#34; , sans-serif&quot;&gt;&lt;span class=&quot;TextRun SCXP14588892 BCX0&quot; lang=&quot;FR-FR&quot; style=&quot;margin: 0px ; padding: 0px 0px 0.372973px ; font-size: 13.3333px ; font-family: &amp;#34;arial&amp;#34; , &amp;#34;arial_msfontservice&amp;#34; , &amp;#34;arial_msfontservice&amp;#34; , sans-serif ; line-height: 16px ; vertical-align: 0.372973px&quot;&gt;&lt;span class=&quot;NormalTextRun SCXP14588892 BCX0&quot; style=&quot;margin: 0px ; padding: 0px ; vertical-align: -0.372973px ; line-height: 0px ; position: relative&quot;&gt;&lt;span class=&quot;TextRun SCXP51421336 BCX0&quot; lang=&quot;FR-FR&quot; style=&quot;margin: 0px ; padding: 0px 0px 0.372973px ; font-size: 13.3333px ; font-family: &amp;#34;arial&amp;#34; , &amp;#34;arial_msfontservice&amp;#34; , &amp;#34;arial_msfontservice&amp;#34; , sans-serif ; line-height: 16px ; vertical-align: 0.372973px&quot;&gt;&lt;span class=&quot;NormalTextRun SCXP51421336 BCX0&quot; style=&quot;margin: 0px ; padding: 0px ; vertical-align: -0.372973px ; line-height: 0px ; position: relative&quot;&gt;&lt;span style=&quot;background-color: rgb(255 , 255 , 255)&quot;&gt;IGYA&lt;/span&gt;&lt;font color=&quot;#ffffff&quot;&gt;&lt;span style=&quot;background-color: rgb(255 , 255 , 255)&quot;&gt;&lt;b&gt;&lt;br&gt;&lt;/b&gt;&lt;/span&gt;&lt;/font&gt;&lt;/span&gt;&lt;/span&gt;&lt;br&gt;&lt;span style=&quot;background-color: rgb(237 , 235 , 233)&quot;&gt;Coding&lt;/span&gt;&lt;/span&gt;&lt;/span&gt;&lt;span class=&quot;EOP SCXP14588892 BCX0&quot; style=&quot;background-color: rgb(237 , 235 , 233) ; margin: 0px ; padding: 0px ; font-size: 13.3333px ; line-height: 0px ; font-family: &amp;#34;arial&amp;#34; , &amp;#34;arial_msfontservice&amp;#34; , &amp;#34;arial_msfontservice&amp;#34; , sans-serif&quot;&gt;​&lt;/span&gt;&lt;br&gt;&lt;/span&gt;" idbpm="nouveau" id="62n9yc7HZovCQX4y2veT-21">
          <mxCell style="html=1;whiteSpace=wrap;rounded=1;dropTarget=0;strokeWidth=3;gradientColor=#ffd966;fillColor=#fff2cc;strokeColor=#d6b656;" vertex="1" parent="1">
            <mxGeometry x="420" y="400" width="120" height="80" as="geometry" />
          </mxCell>
        </object>
      </root>
    </mxGraphModel>
  </diagram>
</mxfile>
